<?xml version="1.0" standalone="no"?>
<!DOCTYPE svg PUBLIC "-//W3C//DTD SVG 20010904//EN"
 "http://www.w3.org/TR/2001/REC-SVG-20010904/DTD/svg10.dtd">
<svg version="1.0" xmlns="http://www.w3.org/2000/svg"
 width="345.000000pt" height="345.000000pt" viewBox="0 0 345.000000 345.000000"
 preserveAspectRatio="xMidYMid meet">
<metadata>
Created by potrace 1.14, written by Peter Selinger 2001-2017
</metadata>
<g transform="translate(0.000000,345.000000) scale(0.100000,-0.100000)"
fill="#000000" stroke="none">
<path d="M1670 2962 c0 -8 -9 -11 -26 -8 -15 3 -35 1 -45 -5 -13 -7 -19 -6
-19 1 0 7 -6 8 -17 2 -10 -5 -26 -8 -35 -7 -10 2 -20 0 -23 -5 -2 -4 -16 -6
-30 -5 -14 2 -25 -1 -25 -7 0 -6 -7 -4 -17 3 -11 10 -14 10 -9 2 4 -8 1 -13
-9 -13 -11 0 -14 -7 -11 -25 3 -14 2 -25 -2 -25 -9 0 -8 -72 1 -86 3 -6 4 -14
0 -17 -9 -10 -9 -98 0 -104 4 -2 4 -10 0 -16 -10 -17 -11 -47 -1 -47 5 0 7 -4
3 -9 -9 -16 -13 -71 -4 -71 4 0 4 -12 1 -27 -9 -35 -9 -55 1 -70 5 -7 5 -19 1
-25 -12 -18 -11 -92 1 -100 7 -5 7 -10 0 -15 -11 -9 -13 -88 -3 -99 4 -4 4
-14 0 -23 -7 -14 -8 -37 -2 -51 6 -17 7 -40 1 -40 -11 0 -7 -84 4 -92 7 -5 7
-10 0 -15 -11 -9 -13 -82 -2 -100 4 -6 4 -14 -1 -17 -7 -4 -8 -50 -2 -66 1 -3
1 -9 0 -15 -6 -30 -5 -65 3 -65 4 0 5 -5 1 -12 -11 -17 -11 -58 -1 -58 4 0 5
-5 2 -10 -10 -15 -12 -110 -3 -110 4 0 4 -10 -1 -22 -4 -13 -6 -32 -4 -43 4
-19 4 -36 0 -112 -1 -18 1 -33 6 -33 4 0 3 -8 -2 -18 -6 -11 -6 -24 -1 -32 6
-9 5 -17 -3 -22 -9 -6 -9 -8 1 -8 7 0 10 -4 7 -10 -3 -5 -3 -10 0 -10 11 0
143 139 137 145 -5 5 14 9 30 6 4 0 4 7 1 16 -4 10 -2 14 5 9 6 -3 13 3 17 14
4 11 11 18 16 15 5 -4 9 -1 9 6 0 6 18 28 39 49 22 21 37 41 34 44 -3 3 4 4
16 3 11 -1 21 -7 21 -14 0 -7 3 -13 8 -13 10 0 58 -72 54 -83 -1 -5 2 -6 8 -2
5 3 14 -4 19 -17 5 -13 19 -31 31 -41 11 -10 18 -22 15 -27 -3 -6 -1 -10 5
-10 6 0 8 -5 4 -12 -4 -7 -3 -8 4 -4 7 4 17 -3 24 -18 6 -14 15 -26 20 -26 4
0 8 -7 8 -16 0 -8 4 -13 8 -10 5 3 15 -10 22 -29 7 -19 17 -32 22 -29 7 5 12
-10 9 -29 -1 -5 3 -6 9 -2 5 3 10 -1 10 -10 0 -9 5 -13 10 -10 6 3 10 -1 10
-9 0 -8 13 -29 30 -47 16 -18 27 -36 24 -41 -3 -4 2 -8 11 -8 9 0 13 -4 10
-10 -3 -6 -1 -10 5 -10 6 0 8 -4 5 -10 -3 -5 1 -10 10 -10 9 0 15 -5 13 -12
-2 -6 9 -24 24 -40 16 -16 26 -33 23 -39 -4 -5 1 -9 9 -9 9 0 16 -5 16 -11 0
-6 7 -17 15 -26 11 -11 13 -19 5 -27 -5 -7 -7 -16 -3 -20 4 -4 0 -4 -9 -1 -9
4 -19 2 -23 -4 -3 -6 -15 -11 -26 -11 -11 0 -22 -6 -25 -14 -3 -8 -12 -12 -20
-9 -8 3 -14 0 -14 -6 0 -6 -3 -10 -7 -10 -5 1 -10 0 -13 -1 -9 -3 -44 -11 -72
-17 -15 -3 -26 -9 -23 -13 2 -4 -7 -6 -20 -4 -14 1 -25 -2 -25 -7 0 -6 -4 -7
-10 -4 -5 3 -18 1 -28 -4 -13 -7 -22 -7 -30 1 -9 9 -12 9 -12 -1 0 -8 -7 -11
-20 -8 -11 3 -20 2 -20 -2 0 -8 -206 -8 -215 0 -3 4 -19 5 -36 3 -18 -2 -28 0
-24 6 4 7 -3 7 -19 0 -17 -6 -27 -6 -32 2 -5 7 -3 8 6 3 9 -6 11 -4 5 4 -5 9
-11 9 -17 3 -7 -7 -22 -5 -44 4 -19 8 -34 12 -34 9 0 -3 -10 0 -22 7 -13 7
-27 11 -32 10 -4 -2 -14 2 -20 8 -7 5 -16 7 -19 3 -4 -3 -7 -2 -7 4 0 6 -7 14
-16 17 -10 4 -13 2 -8 -7 4 -6 -2 -4 -13 5 -11 10 -27 18 -36 18 -9 0 -17 5
-17 11 0 5 -4 7 -10 4 -5 -3 -10 -3 -10 2 0 4 -18 17 -40 27 -22 11 -40 23
-40 28 0 4 -7 8 -15 8 -7 0 -18 6 -22 14 -4 8 -14 16 -21 18 -18 4 -137 121
-187 183 -22 28 -46 56 -55 63 -13 12 -13 12 0 6 8 -4 4 5 -10 21 -14 16 -18
25 -10 21 12 -6 11 -4 -1 6 -19 15 -53 78 -42 78 4 0 -2 7 -13 15 -10 8 -16
15 -12 15 4 0 1 12 -7 27 -8 15 -12 30 -9 35 3 4 1 8 -4 8 -9 0 -12 12 -29 85
-10 44 -12 50 -13 53 -2 1 -3 5 -4 10 -1 4 -5 13 -10 21 -7 10 -6 12 3 6 10
-6 11 -3 3 11 -5 11 -7 25 -5 32 3 6 -1 12 -7 12 -9 0 -9 4 1 16 8 10 9 18 3
22 -13 8 -12 161 0 181 6 10 5 12 -2 7 -7 -4 -12 -3 -12 3 0 5 4 12 9 15 5 4
8 14 6 24 -1 9 2 25 7 35 5 11 5 17 -2 17 -5 0 -10 5 -10 11 0 5 5 7 12 3 8
-5 9 0 6 14 -4 12 -2 22 3 22 4 0 5 7 2 17 -4 10 -2 14 4 10 7 -4 10 0 9 10
-4 23 13 74 31 95 11 12 11 18 2 23 -8 6 -8 10 4 16 8 5 18 21 22 36 3 15 14
33 23 41 9 7 11 10 3 6 -7 -4 -2 10 12 31 14 21 23 43 20 48 -3 6 -1 7 5 3 6
-3 14 4 17 16 7 23 15 33 75 96 17 17 27 32 23 32 -4 0 8 11 27 25 19 14 31
25 27 25 -4 0 -2 6 5 14 7 8 15 12 17 10 2 -2 14 8 27 21 13 14 28 25 33 25 5
0 16 9 24 20 8 11 16 18 19 15 3 -3 13 5 24 17 12 13 13 18 4 13 -12 -7 -13
-6 -4 6 14 16 15 179 1 179 -4 0 -5 6 -1 13 6 9 5 9 -8 0 -8 -7 -18 -10 -21
-6 -4 3 -7 1 -7 -5 0 -7 -7 -12 -15 -12 -8 0 -15 -4 -15 -10 0 -5 -7 -10 -15
-10 -8 0 -15 -5 -15 -10 0 -6 -4 -9 -9 -8 -5 2 -17 -6 -26 -17 -9 -11 -13 -13
-9 -5 4 9 -2 7 -14 -5 -11 -11 -34 -30 -50 -43 -42 -32 -162 -151 -192 -191
-14 -18 -31 -39 -38 -47 -7 -8 -11 -14 -7 -14 4 0 0 -7 -7 -15 -29 -33 -38
-45 -33 -45 4 0 -1 -7 -9 -16 -9 -8 -16 -21 -16 -29 0 -7 -3 -15 -7 -17 -11
-4 -43 -67 -43 -84 0 -8 -5 -14 -11 -14 -5 0 -8 -4 -4 -9 3 -5 1 -12 -5 -16
-6 -4 -8 -11 -5 -16 4 -5 -1 -12 -10 -15 -13 -6 -14 -8 -3 -15 8 -5 9 -9 2 -9
-10 0 -27 -51 -28 -85 -1 -5 -6 -13 -12 -17 -6 -4 -10 -23 -9 -43 1 -19 -1
-35 -6 -35 -4 0 -6 -8 -4 -17 1 -10 -3 -24 -9 -32 -9 -12 -8 -13 4 -6 12 7 13
6 4 -6 -6 -8 -10 -26 -9 -41 1 -16 -2 -28 -7 -28 -5 0 -4 -9 2 -20 7 -14 7
-20 0 -20 -5 0 -10 -5 -10 -11 0 -5 4 -8 8 -5 10 6 9 -25 -2 -42 -4 -7 -2 -12
6 -12 10 0 10 -2 -1 -9 -7 -5 -11 -13 -8 -18 4 -6 7 -40 9 -76 1 -37 7 -67 13
-67 5 0 3 -5 -5 -10 -8 -5 -10 -10 -4 -10 6 0 11 -16 12 -36 1 -20 6 -42 12
-48 6 -9 6 -17 -3 -26 -10 -10 -9 -11 2 -5 11 6 13 4 8 -8 -3 -10 -3 -17 2
-17 4 0 8 -6 9 -12 1 -13 9 -48 12 -58 1 -3 2 -8 1 -12 0 -5 3 -8 9 -8 5 0 7
-7 4 -15 -4 -8 -1 -15 6 -15 6 0 8 -4 5 -10 -3 -5 0 -10 7 -10 9 0 9 -3 -2
-10 -13 -8 -12 -10 4 -10 11 0 17 -3 13 -6 -3 -4 0 -19 8 -34 8 -15 11 -31 7
-35 -4 -5 -1 -5 6 -1 11 6 17 -5 13 -26 0 -5 3 -8 9 -8 5 0 10 -7 10 -15 0 -8
5 -15 10 -15 6 0 10 -7 10 -15 0 -8 9 -25 20 -37 10 -13 20 -27 22 -33 1 -5
11 -20 23 -31 11 -12 36 -41 55 -65 19 -23 50 -56 67 -72 18 -16 30 -34 26
-40 -3 -6 -1 -7 4 -4 13 8 55 -27 45 -38 -4 -5 1 -5 11 -2 11 4 17 1 17 -8 0
-8 3 -14 8 -13 11 4 53 -28 45 -35 -3 -4 3 -7 15 -7 12 0 22 -4 22 -10 0 -5 5
-10 11 -10 6 0 17 -7 26 -15 8 -8 19 -13 24 -10 5 4 9 1 9 -4 0 -6 7 -11 15
-11 8 0 15 -4 15 -8 0 -4 17 -14 38 -21 20 -8 46 -21 56 -30 16 -13 18 -13 11
-1 -7 12 -6 13 6 3 26 -21 174 -66 212 -65 9 0 17 -3 17 -7 0 -4 21 -9 47 -10
26 -1 51 -7 55 -14 5 -7 8 -8 8 -1 0 6 7 11 15 11 8 0 15 -5 15 -11 0 -6 5 -4
10 4 5 8 10 10 10 4 0 -9 62 -12 95 -4 6 1 12 1 15 0 14 -6 78 -4 74 2 -3 4
13 5 36 3 22 -2 40 0 40 4 0 5 9 7 20 4 11 -3 28 1 37 8 15 12 16 12 8 -1 -7
-13 -6 -13 7 -2 9 7 20 12 24 11 5 -1 12 0 17 1 4 1 10 3 15 5 4 1 19 5 33 9
14 4 32 9 40 10 8 2 30 9 49 17 19 7 38 12 43 11 4 -1 7 3 7 10 0 6 3 9 6 5 3
-3 21 3 40 14 19 10 41 19 49 19 8 0 15 4 15 9 0 11 40 26 55 22 6 -1 7 0 3 4
-4 4 21 26 55 49 71 47 107 76 107 87 0 5 -11 19 -25 33 -16 16 -20 26 -12 29
7 3 4 6 -6 6 -10 1 -16 5 -13 9 3 5 -4 15 -15 22 -10 8 -19 20 -19 27 0 6 -8
18 -19 25 -10 7 -21 23 -25 36 -4 12 -15 22 -24 23 -11 0 -12 2 -4 6 8 3 5 11
-10 24 -13 10 -19 18 -14 19 4 0 -2 9 -15 20 -13 10 -20 19 -15 20 5 0 -1 9
-14 20 -13 11 -19 20 -14 20 5 0 1 5 -8 11 -10 5 -18 14 -18 20 0 10 -10 24
-47 63 -12 13 -19 27 -16 30 4 3 1 6 -5 6 -7 0 -12 7 -12 15 0 7 -8 19 -17 24
-10 6 -14 11 -9 11 5 0 -1 8 -12 19 -12 10 -19 21 -15 25 3 3 -1 6 -11 6 -9 0
-15 4 -12 9 3 5 -5 20 -19 35 -13 14 -21 26 -18 26 4 0 -3 9 -15 20 -12 12
-22 27 -22 36 0 8 -7 17 -15 20 -8 4 -15 13 -15 21 0 8 -4 11 -10 8 -5 -3 -10
0 -10 7 0 7 -11 26 -25 41 -14 15 -23 27 -19 27 4 0 -3 8 -14 19 -12 10 -22
23 -22 30 0 6 -8 11 -17 11 -15 0 -14 2 3 16 10 8 12 13 4 9 -10 -4 -9 -2 3 8
9 8 17 17 17 19 0 10 80 85 85 80 3 -3 5 0 5 6 0 17 32 52 42 46 4 -3 8 0 8 6
0 5 24 34 53 63 28 28 51 55 50 59 -2 5 3 8 11 8 8 0 18 9 21 20 3 11 12 20
20 20 8 0 17 9 20 20 6 18 17 24 37 21 4 0 5 6 2 14 -7 18 3 16 -152 18 -67 1
-122 -1 -122 -5 0 -5 -3 -7 -7 -5 -5 1 -10 -3 -12 -8 -8 -17 -26 -33 -32 -29
-3 2 -12 -8 -19 -21 -7 -14 -20 -25 -28 -25 -9 0 -13 -3 -9 -6 7 -7 -35 -50
-45 -47 -5 2 -8 -1 -8 -6 0 -5 -31 -41 -69 -79 -38 -39 -66 -74 -63 -78 4 -4
-1 -4 -11 -1 -11 4 -16 3 -12 -4 4 -6 -3 -13 -15 -16 -16 -4 -18 -8 -8 -14 10
-7 9 -9 -5 -9 -10 0 -16 -4 -13 -9 3 -5 -1 -12 -10 -15 -8 -3 -12 -2 -9 4 3 6
1 10 -6 10 -8 0 -8 4 1 15 7 8 8 15 3 15 -11 0 -11 29 1 48 4 7 2 12 -5 12 -8
0 -8 4 1 15 9 11 9 15 1 15 -8 0 -9 6 -2 18 6 11 6 24 0 35 -6 9 -6 17 -1 17
9 0 8 53 -3 69 -3 6 -2 11 2 11 10 0 9 53 -2 69 -3 6 -2 11 2 11 10 0 9 53 -2
69 -3 6 -2 11 2 11 10 0 9 53 -2 69 -3 6 -2 11 2 11 10 0 9 53 -2 69 -3 6 -2
11 2 11 10 0 9 53 -2 69 -3 6 -2 11 2 11 10 0 9 53 -2 69 -3 6 -2 11 3 11 10
0 9 30 -1 47 -4 6 -3 14 2 18 7 4 7 15 1 30 -7 17 -6 25 1 25 8 0 7 5 -1 15
-10 12 -10 15 1 15 10 0 10 3 1 12 -8 8 -9 15 -1 25 9 10 8 13 -1 13 -10 0
-10 3 0 15 9 11 9 15 1 15 -9 0 -9 5 0 21 6 12 7 19 1 15 -6 -4 -8 2 -5 14 3
11 10 17 15 14 6 -4 14 0 19 7 6 10 9 10 9 2 0 -9 7 -10 25 -3 18 7 25 6 25
-3 0 -8 3 -8 8 -2 6 9 26 12 35 5 9 -7 67 -3 67 5 0 6 3 5 8 -1 9 -14 62 -24
62 -11 0 6 4 6 13 0 6 -6 19 -11 27 -11 37 -3 119 -25 115 -32 -2 -4 7 -6 20
-4 14 1 25 -2 25 -7 0 -5 9 -9 20 -9 11 0 20 -4 20 -8 0 -5 6 -9 13 -9 17 0
136 -60 154 -79 8 -8 18 -12 22 -10 4 3 14 -4 21 -15 8 -10 20 -19 28 -19 7 0
17 -10 22 -22 5 -13 9 -16 9 -8 1 10 6 7 17 -8 8 -12 20 -20 25 -17 5 4 9 1 9
-5 0 -6 25 -36 55 -66 33 -31 53 -59 49 -66 -4 -6 -3 -8 2 -5 6 3 21 -12 34
-34 14 -21 28 -39 32 -39 5 0 8 -7 8 -15 0 -8 5 -15 11 -15 5 0 7 -4 4 -10 -3
-5 -1 -10 5 -10 6 0 8 -4 5 -10 -3 -5 -1 -10 4 -10 6 0 11 -7 11 -15 0 -8 5
-15 11 -15 5 0 8 -4 4 -9 -3 -5 1 -15 8 -23 8 -7 12 -19 9 -26 -2 -6 2 -12 8
-12 7 0 10 -7 6 -15 -3 -8 -1 -15 5 -15 6 0 8 -4 4 -9 -3 -5 -1 -12 5 -16 6
-4 8 -11 5 -16 -4 -5 -2 -9 3 -9 9 0 11 -8 14 -55 1 -14 5 -25 8 -25 4 0 7 -6
8 -12 2 -30 10 -83 12 -83 1 0 3 -16 4 -35 1 -20 5 -41 9 -47 4 -6 1 -14 -5
-16 -7 -3 -8 -6 -3 -6 11 -1 11 -93 1 -110 -3 -5 0 -12 6 -14 10 -4 10 -6 1
-6 -7 -1 -10 -8 -7 -16 4 -8 1 -15 -6 -15 -10 0 -10 -3 -1 -14 7 -8 8 -17 3
-20 -5 -3 -8 -19 -7 -36 1 -16 -2 -30 -7 -30 -4 0 -8 -5 -8 -11 0 -5 6 -7 13
-3 6 4 5 -1 -4 -12 -9 -10 -15 -27 -14 -36 2 -10 0 -18 -5 -18 -5 0 -7 -11 -5
-25 1 -15 -4 -29 -14 -35 -13 -8 -14 -9 -1 -10 13 0 13 -1 0 -10 -8 -5 -15
-13 -15 -17 -1 -4 -6 -18 -13 -31 -7 -12 -10 -27 -7 -32 4 -6 -1 -13 -9 -16
-9 -3 -13 -10 -10 -15 3 -5 1 -9 -4 -9 -4 0 -14 -16 -22 -35 -8 -19 -17 -35
-22 -35 -4 0 -8 -5 -8 -11 0 -7 -8 -18 -17 -26 -11 -9 -12 -12 -3 -7 12 5 12
4 3 -6 -9 -10 -6 -21 15 -49 14 -20 33 -42 41 -49 8 -6 12 -12 8 -12 -4 0 1
-9 12 -21 19 -21 61 -20 61 2 0 6 6 7 13 3 9 -6 9 -5 0 7 -9 11 -7 19 10 36
12 11 31 38 42 59 11 22 26 45 33 52 7 8 10 18 7 23 -4 5 -1 9 4 9 6 0 10 3 9
8 -1 4 4 18 12 32 21 37 40 92 34 102 -3 4 -1 8 4 8 9 0 28 65 24 83 -1 4 2 7
7 7 6 0 8 9 6 20 -2 11 -1 20 4 20 4 0 8 10 9 23 4 62 8 93 13 102 2 6 4 31 4
58 0 26 4 47 10 47 5 0 5 4 -2 8 -8 5 -9 13 -3 22 5 8 5 21 -1 32 -5 10 -6 18
-1 18 4 0 8 9 8 20 0 11 -3 20 -7 20 -4 0 -7 15 -7 33 0 51 -6 97 -12 97 -4 0
-6 10 -5 23 1 12 -3 25 -9 29 -8 5 -7 8 2 8 9 0 7 8 -5 27 -14 21 -15 25 -3
18 12 -7 13 -6 4 6 -12 16 -37 93 -37 114 0 8 -4 12 -9 9 -4 -3 -8 1 -8 9 0 8
-11 39 -24 68 -14 29 -22 57 -19 62 3 6 1 7 -5 3 -7 -4 -12 -2 -12 4 0 7 -9
25 -21 41 -11 16 -17 29 -13 29 4 0 -3 8 -14 19 -12 10 -19 21 -15 25 3 3 1 6
-5 6 -7 0 -12 5 -12 11 0 6 -13 23 -28 37 -16 15 -27 33 -24 41 3 9 0 11 -7 6
-8 -4 -14 1 -18 14 -3 11 -9 18 -14 15 -8 -5 -13 9 -10 29 0 4 -5 7 -12 7 -14
0 -38 20 -75 64 -12 15 -28 24 -34 20 -6 -4 -8 -3 -4 4 3 6 -3 13 -14 17 -11
3 -20 11 -20 16 0 6 -13 15 -30 20 -16 6 -28 16 -27 22 1 7 -4 11 -10 9 -7 -1
-13 3 -13 9 0 5 -4 8 -9 5 -5 -4 -11 -2 -13 3 -1 5 -10 11 -18 13 -8 2 -23 11
-34 21 -11 9 -26 17 -33 17 -7 0 -13 5 -13 12 0 6 -3 8 -7 5 -3 -4 -17 0 -30
8 -13 9 -27 13 -32 10 -5 -2 -11 2 -15 10 -3 8 -12 12 -20 9 -8 -3 -17 0 -21
5 -3 6 -11 9 -16 6 -5 -4 -9 -1 -9 6 0 6 -8 9 -20 6 -11 -3 -23 0 -28 6 -4 7
-16 13 -27 14 -31 3 -49 8 -62 16 -8 5 -13 3 -13 -5 0 -10 -2 -10 -9 0 -4 8
-11 13 -15 13 -3 -1 -9 0 -13 0 -5 1 -16 0 -27 -1 -10 -1 -15 3 -12 9 4 6 -4
7 -24 1 -16 -5 -30 -5 -30 -1 0 5 -11 7 -25 6 -14 -2 -28 1 -31 6 -4 6 -11 6
-19 -1 -10 -8 -15 -8 -20 1 -6 8 -10 7 -16 -2 -8 -12 -10 -12 -18 0 -6 10 -10
10 -16 1 -6 -9 -10 -9 -16 1 -7 11 -9 11 -9 1z"/>
</g>
</svg>
