<svg xmlns="http://www.w3.org/2000/svg" version="1.1" xmlns:xlink="http://www.w3.org/1999/xlink" xmlns:svgjs="http://svgjs.dev/svgjs" viewBox="0 0 800 800" opacity="0.62" width="800" height="800"><g stroke-width="0.5" stroke="hsla(212, 78%, 40%, 1.00)" fill="none"><rect width="5" height="5" x="-2.5" y="-2.5" fill="hsla(212, 78%, 40%, 1.00)" stroke="none"></rect><rect width="5" height="5" x="59.03846153846154" y="-2.5" fill="hsla(212, 78%, 40%, 1.00)" stroke="none"></rect><rect width="5" height="5" x="120.57692307692308" y="-2.5" fill="hsla(212, 78%, 40%, 1.00)" stroke="none"></rect><rect width="5" height="5" x="182.1153846153846" y="-2.5" fill="hsla(212, 78%, 40%, 1.00)" stroke="none"></rect><rect width="5" height="5" x="243.65384615384616" y="-2.5" fill="hsla(212, 78%, 40%, 1.00)" stroke="none"></rect><rect width="5" height="5" x="305.1923076923077" y="-2.5" fill="hsla(212, 78%, 40%, 1.00)" stroke="none"></rect><rect width="5" height="5" x="366.7307692307692" y="-2.5" fill="hsla(212, 78%, 40%, 1.00)" stroke="none"></rect><rect width="5" height="5" x="428.2692307692308" y="-2.5" fill="hsla(212, 78%, 40%, 1.00)" stroke="none"></rect><rect width="5" height="5" x="489.8076923076923" y="-2.5" fill="hsla(212, 78%, 40%, 1.00)" stroke="none"></rect><rect width="5" height="5" x="551.3461538461538" y="-2.5" fill="hsla(212, 78%, 40%, 1.00)" stroke="none"></rect><rect width="5" height="5" x="612.8846153846154" y="-2.5" fill="hsla(212, 78%, 40%, 1.00)" stroke="none"></rect><rect width="5" height="5" x="674.4230769230769" y="-2.5" fill="hsla(212, 78%, 40%, 1.00)" stroke="none"></rect><rect width="5" height="5" x="735.9615384615385" y="-2.5" fill="hsla(212, 78%, 40%, 1.00)" stroke="none"></rect><rect width="5" height="5" x="797.5" y="-2.5" fill="hsla(212, 78%, 40%, 1.00)" stroke="none"></rect><rect width="5" height="5" x="-2.5" y="59.03846153846154" fill="hsla(212, 78%, 40%, 1.00)" stroke="none"></rect><rect width="5" height="5" x="59.03846153846154" y="59.03846153846154" fill="hsla(212, 78%, 40%, 1.00)" stroke="none"></rect><rect width="5" height="5" x="120.57692307692308" y="59.03846153846154" fill="hsla(212, 78%, 40%, 1.00)" stroke="none"></rect><rect width="5" height="5" x="182.1153846153846" y="59.03846153846154" fill="hsla(212, 78%, 40%, 1.00)" stroke="none"></rect><rect width="5" height="5" x="243.65384615384616" y="59.03846153846154"></rect><rect width="5" height="5" x="305.1923076923077" y="59.03846153846154"></rect><rect width="5" height="5" x="366.7307692307692" y="59.03846153846154"></rect><rect width="5" height="5" x="428.2692307692308" y="59.03846153846154"></rect><rect width="5" height="5" x="489.8076923076923" y="59.03846153846154"></rect><rect width="5" height="5" x="551.3461538461538" y="59.03846153846154" fill="hsla(212, 78%, 40%, 1.00)" stroke="none"></rect><rect width="5" height="5" x="612.8846153846154" y="59.03846153846154" fill="hsla(212, 78%, 40%, 1.00)" stroke="none"></rect><rect width="5" height="5" x="674.4230769230769" y="59.03846153846154" fill="hsla(212, 78%, 40%, 1.00)" stroke="none"></rect><rect width="5" height="5" x="735.9615384615385" y="59.03846153846154"></rect><rect width="5" height="5" x="797.5" y="59.03846153846154" fill="hsla(212, 78%, 40%, 1.00)" stroke="none"></rect><rect width="5" height="5" x="-2.5" y="120.57692307692308" fill="hsla(212, 78%, 40%, 1.00)" stroke="none"></rect><rect width="5" height="5" x="59.03846153846154" y="120.57692307692308" fill="hsla(212, 78%, 40%, 1.00)" stroke="none"></rect><rect width="5" height="5" x="120.57692307692308" y="120.57692307692308" fill="hsla(212, 78%, 40%, 1.00)" stroke="none"></rect><rect width="5" height="5" x="182.1153846153846" y="120.57692307692308" fill="hsla(212, 78%, 40%, 1.00)" stroke="none"></rect><rect width="5" height="5" x="243.65384615384616" y="120.57692307692308" fill="hsla(212, 78%, 40%, 1.00)" stroke="none"></rect><rect width="5" height="5" x="305.1923076923077" y="120.57692307692308"></rect><rect width="5" height="5" x="366.7307692307692" y="120.57692307692308" fill="hsla(212, 78%, 40%, 1.00)" stroke="none"></rect><rect width="5" height="5" x="428.2692307692308" y="120.57692307692308" fill="hsla(212, 78%, 40%, 1.00)" stroke="none"></rect><rect width="5" height="5" x="489.8076923076923" y="120.57692307692308"></rect><rect width="5" height="5" x="551.3461538461538" y="120.57692307692308" fill="hsla(212, 78%, 40%, 1.00)" stroke="none"></rect><rect width="5" height="5" x="612.8846153846154" y="120.57692307692308" fill="hsla(212, 78%, 40%, 1.00)" stroke="none"></rect><rect width="5" height="5" x="674.4230769230769" y="120.57692307692308" fill="hsla(212, 78%, 40%, 1.00)" stroke="none"></rect><rect width="5" height="5" x="735.9615384615385" y="120.57692307692308" fill="hsla(212, 78%, 40%, 1.00)" stroke="none"></rect><rect width="5" height="5" x="797.5" y="120.57692307692308" fill="hsla(212, 78%, 40%, 1.00)" stroke="none"></rect><rect width="5" height="5" x="-2.5" y="182.1153846153846" fill="hsla(212, 78%, 40%, 1.00)" stroke="none"></rect><rect width="5" height="5" x="59.03846153846154" y="182.1153846153846" fill="hsla(212, 78%, 40%, 1.00)" stroke="none"></rect><rect width="5" height="5" x="120.57692307692308" y="182.1153846153846" fill="hsla(212, 78%, 40%, 1.00)" stroke="none"></rect><rect width="5" height="5" x="182.1153846153846" y="182.1153846153846"></rect><rect width="5" height="5" x="243.65384615384616" y="182.1153846153846"></rect><rect width="5" height="5" x="305.1923076923077" y="182.1153846153846" fill="hsla(212, 78%, 40%, 1.00)" stroke="none"></rect><rect width="5" height="5" x="366.7307692307692" y="182.1153846153846"></rect><rect width="5" height="5" x="428.2692307692308" y="182.1153846153846" fill="hsla(212, 78%, 40%, 1.00)" stroke="none"></rect><rect width="5" height="5" x="489.8076923076923" y="182.1153846153846" fill="hsla(212, 78%, 40%, 1.00)" stroke="none"></rect><rect width="5" height="5" x="551.3461538461538" y="182.1153846153846" fill="hsla(212, 78%, 40%, 1.00)" stroke="none"></rect><rect width="5" height="5" x="612.8846153846154" y="182.1153846153846" fill="hsla(212, 78%, 40%, 1.00)" stroke="none"></rect><rect width="5" height="5" x="674.4230769230769" y="182.1153846153846" fill="hsla(212, 78%, 40%, 1.00)" stroke="none"></rect><rect width="5" height="5" x="735.9615384615385" y="182.1153846153846" fill="hsla(212, 78%, 40%, 1.00)" stroke="none"></rect><rect width="5" height="5" x="797.5" y="182.1153846153846" fill="hsla(212, 78%, 40%, 1.00)" stroke="none"></rect><rect width="5" height="5" x="-2.5" y="243.65384615384616" fill="hsla(212, 78%, 40%, 1.00)" stroke="none"></rect><rect width="5" height="5" x="59.03846153846154" y="243.65384615384616" fill="hsla(212, 78%, 40%, 1.00)" stroke="none"></rect><rect width="5" height="5" x="120.57692307692308" y="243.65384615384616" fill="hsla(212, 78%, 40%, 1.00)" stroke="none"></rect><rect width="5" height="5" x="182.1153846153846" y="243.65384615384616" fill="hsla(212, 78%, 40%, 1.00)" stroke="none"></rect><rect width="5" height="5" x="243.65384615384616" y="243.65384615384616" fill="hsla(212, 78%, 40%, 1.00)" stroke="none"></rect><rect width="5" height="5" x="305.1923076923077" y="243.65384615384616"></rect><rect width="5" height="5" x="366.7307692307692" y="243.65384615384616" fill="hsla(212, 78%, 40%, 1.00)" stroke="none"></rect><rect width="5" height="5" x="428.2692307692308" y="243.65384615384616"></rect><rect width="5" height="5" x="489.8076923076923" y="243.65384615384616" fill="hsla(212, 78%, 40%, 1.00)" stroke="none"></rect><rect width="5" height="5" x="551.3461538461538" y="243.65384615384616" fill="hsla(212, 78%, 40%, 1.00)" stroke="none"></rect><rect width="5" height="5" x="612.8846153846154" y="243.65384615384616" fill="hsla(212, 78%, 40%, 1.00)" stroke="none"></rect><rect width="5" height="5" x="674.4230769230769" y="243.65384615384616"></rect><rect width="5" height="5" x="735.9615384615385" y="243.65384615384616" fill="hsla(212, 78%, 40%, 1.00)" stroke="none"></rect><rect width="5" height="5" x="797.5" y="243.65384615384616" fill="hsla(212, 78%, 40%, 1.00)" stroke="none"></rect><rect width="5" height="5" x="-2.5" y="305.1923076923077" fill="hsla(212, 78%, 40%, 1.00)" stroke="none"></rect><rect width="5" height="5" x="59.03846153846154" y="305.1923076923077" fill="hsla(212, 78%, 40%, 1.00)" stroke="none"></rect><rect width="5" height="5" x="120.57692307692308" y="305.1923076923077" fill="hsla(212, 78%, 40%, 1.00)" stroke="none"></rect><rect width="5" height="5" x="182.1153846153846" y="305.1923076923077"></rect><rect width="5" height="5" x="243.65384615384616" y="305.1923076923077" fill="hsla(212, 78%, 40%, 1.00)" stroke="none"></rect><rect width="5" height="5" x="305.1923076923077" y="305.1923076923077" fill="hsla(212, 78%, 40%, 1.00)" stroke="none"></rect><rect width="5" height="5" x="366.7307692307692" y="305.1923076923077" fill="hsla(212, 78%, 40%, 1.00)" stroke="none"></rect><rect width="5" height="5" x="428.2692307692308" y="305.1923076923077" fill="hsla(212, 78%, 40%, 1.00)" stroke="none"></rect><rect width="5" height="5" x="489.8076923076923" y="305.1923076923077" fill="hsla(212, 78%, 40%, 1.00)" stroke="none"></rect><rect width="5" height="5" x="551.3461538461538" y="305.1923076923077"></rect><rect width="5" height="5" x="612.8846153846154" y="305.1923076923077" fill="hsla(212, 78%, 40%, 1.00)" stroke="none"></rect><rect width="5" height="5" x="674.4230769230769" y="305.1923076923077" fill="hsla(212, 78%, 40%, 1.00)" stroke="none"></rect><rect width="5" height="5" x="735.9615384615385" y="305.1923076923077"></rect><rect width="5" height="5" x="797.5" y="305.1923076923077" fill="hsla(212, 78%, 40%, 1.00)" stroke="none"></rect><rect width="5" height="5" x="-2.5" y="366.7307692307692" fill="hsla(212, 78%, 40%, 1.00)" stroke="none"></rect><rect width="5" height="5" x="59.03846153846154" y="366.7307692307692" fill="hsla(212, 78%, 40%, 1.00)" stroke="none"></rect><rect width="5" height="5" x="120.57692307692308" y="366.7307692307692" fill="hsla(212, 78%, 40%, 1.00)" stroke="none"></rect><rect width="5" height="5" x="182.1153846153846" y="366.7307692307692" fill="hsla(212, 78%, 40%, 1.00)" stroke="none"></rect><rect width="5" height="5" x="243.65384615384616" y="366.7307692307692" fill="hsla(212, 78%, 40%, 1.00)" stroke="none"></rect><rect width="5" height="5" x="305.1923076923077" y="366.7307692307692" fill="hsla(212, 78%, 40%, 1.00)" stroke="none"></rect><rect width="5" height="5" x="366.7307692307692" y="366.7307692307692" fill="hsla(212, 78%, 40%, 1.00)" stroke="none"></rect><rect width="5" height="5" x="428.2692307692308" y="366.7307692307692" fill="hsla(212, 78%, 40%, 1.00)" stroke="none"></rect><rect width="5" height="5" x="489.8076923076923" y="366.7307692307692" fill="hsla(212, 78%, 40%, 1.00)" stroke="none"></rect><rect width="5" height="5" x="551.3461538461538" y="366.7307692307692" fill="hsla(212, 78%, 40%, 1.00)" stroke="none"></rect><rect width="5" height="5" x="612.8846153846154" y="366.7307692307692"></rect><rect width="5" height="5" x="674.4230769230769" y="366.7307692307692" fill="hsla(212, 78%, 40%, 1.00)" stroke="none"></rect><rect width="5" height="5" x="735.9615384615385" y="366.7307692307692" fill="hsla(212, 78%, 40%, 1.00)" stroke="none"></rect><rect width="5" height="5" x="797.5" y="366.7307692307692" fill="hsla(212, 78%, 40%, 1.00)" stroke="none"></rect><rect width="5" height="5" x="-2.5" y="428.2692307692308" fill="hsla(212, 78%, 40%, 1.00)" stroke="none"></rect><rect width="5" height="5" x="59.03846153846154" y="428.2692307692308" fill="hsla(212, 78%, 40%, 1.00)" stroke="none"></rect><rect width="5" height="5" x="120.57692307692308" y="428.2692307692308"></rect><rect width="5" height="5" x="182.1153846153846" y="428.2692307692308" fill="hsla(212, 78%, 40%, 1.00)" stroke="none"></rect><rect width="5" height="5" x="243.65384615384616" y="428.2692307692308" fill="hsla(212, 78%, 40%, 1.00)" stroke="none"></rect><rect width="5" height="5" x="305.1923076923077" y="428.2692307692308" fill="hsla(212, 78%, 40%, 1.00)" stroke="none"></rect><rect width="5" height="5" x="366.7307692307692" y="428.2692307692308" fill="hsla(212, 78%, 40%, 1.00)" stroke="none"></rect><rect width="5" height="5" x="428.2692307692308" y="428.2692307692308" fill="hsla(212, 78%, 40%, 1.00)" stroke="none"></rect><rect width="5" height="5" x="489.8076923076923" y="428.2692307692308" fill="hsla(212, 78%, 40%, 1.00)" stroke="none"></rect><rect width="5" height="5" x="551.3461538461538" y="428.2692307692308" fill="hsla(212, 78%, 40%, 1.00)" stroke="none"></rect><rect width="5" height="5" x="612.8846153846154" y="428.2692307692308"></rect><rect width="5" height="5" x="674.4230769230769" y="428.2692307692308" fill="hsla(212, 78%, 40%, 1.00)" stroke="none"></rect><rect width="5" height="5" x="735.9615384615385" y="428.2692307692308"></rect><rect width="5" height="5" x="797.5" y="428.2692307692308" fill="hsla(212, 78%, 40%, 1.00)" stroke="none"></rect><rect width="5" height="5" x="-2.5" y="489.8076923076923" fill="hsla(212, 78%, 40%, 1.00)" stroke="none"></rect><rect width="5" height="5" x="59.03846153846154" y="489.8076923076923" fill="hsla(212, 78%, 40%, 1.00)" stroke="none"></rect><rect width="5" height="5" x="120.57692307692308" y="489.8076923076923" fill="hsla(212, 78%, 40%, 1.00)" stroke="none"></rect><rect width="5" height="5" x="182.1153846153846" y="489.8076923076923" fill="hsla(212, 78%, 40%, 1.00)" stroke="none"></rect><rect width="5" height="5" x="243.65384615384616" y="489.8076923076923" fill="hsla(212, 78%, 40%, 1.00)" stroke="none"></rect><rect width="5" height="5" x="305.1923076923077" y="489.8076923076923" fill="hsla(212, 78%, 40%, 1.00)" stroke="none"></rect><rect width="5" height="5" x="366.7307692307692" y="489.8076923076923"></rect><rect width="5" height="5" x="428.2692307692308" y="489.8076923076923" fill="hsla(212, 78%, 40%, 1.00)" stroke="none"></rect><rect width="5" height="5" x="489.8076923076923" y="489.8076923076923" fill="hsla(212, 78%, 40%, 1.00)" stroke="none"></rect><rect width="5" height="5" x="551.3461538461538" y="489.8076923076923"></rect><rect width="5" height="5" x="612.8846153846154" y="489.8076923076923"></rect><rect width="5" height="5" x="674.4230769230769" y="489.8076923076923"></rect><rect width="5" height="5" x="735.9615384615385" y="489.8076923076923" fill="hsla(212, 78%, 40%, 1.00)" stroke="none"></rect><rect width="5" height="5" x="797.5" y="489.8076923076923" fill="hsla(212, 78%, 40%, 1.00)" stroke="none"></rect><rect width="5" height="5" x="-2.5" y="551.3461538461538" fill="hsla(212, 78%, 40%, 1.00)" stroke="none"></rect><rect width="5" height="5" x="59.03846153846154" y="551.3461538461538"></rect><rect width="5" height="5" x="120.57692307692308" y="551.3461538461538"></rect><rect width="5" height="5" x="182.1153846153846" y="551.3461538461538" fill="hsla(212, 78%, 40%, 1.00)" stroke="none"></rect><rect width="5" height="5" x="243.65384615384616" y="551.3461538461538" fill="hsla(212, 78%, 40%, 1.00)" stroke="none"></rect><rect width="5" height="5" x="305.1923076923077" y="551.3461538461538" fill="hsla(212, 78%, 40%, 1.00)" stroke="none"></rect><rect width="5" height="5" x="366.7307692307692" y="551.3461538461538" fill="hsla(212, 78%, 40%, 1.00)" stroke="none"></rect><rect width="5" height="5" x="428.2692307692308" y="551.3461538461538" fill="hsla(212, 78%, 40%, 1.00)" stroke="none"></rect><rect width="5" height="5" x="489.8076923076923" y="551.3461538461538"></rect><rect width="5" height="5" x="551.3461538461538" y="551.3461538461538"></rect><rect width="5" height="5" x="612.8846153846154" y="551.3461538461538" fill="hsla(212, 78%, 40%, 1.00)" stroke="none"></rect><rect width="5" height="5" x="674.4230769230769" y="551.3461538461538" fill="hsla(212, 78%, 40%, 1.00)" stroke="none"></rect><rect width="5" height="5" x="735.9615384615385" y="551.3461538461538" fill="hsla(212, 78%, 40%, 1.00)" stroke="none"></rect><rect width="5" height="5" x="797.5" y="551.3461538461538" fill="hsla(212, 78%, 40%, 1.00)" stroke="none"></rect><rect width="5" height="5" x="-2.5" y="612.8846153846154" fill="hsla(212, 78%, 40%, 1.00)" stroke="none"></rect><rect width="5" height="5" x="59.03846153846154" y="612.8846153846154" fill="hsla(212, 78%, 40%, 1.00)" stroke="none"></rect><rect width="5" height="5" x="120.57692307692308" y="612.8846153846154" fill="hsla(212, 78%, 40%, 1.00)" stroke="none"></rect><rect width="5" height="5" x="182.1153846153846" y="612.8846153846154" fill="hsla(212, 78%, 40%, 1.00)" stroke="none"></rect><rect width="5" height="5" x="243.65384615384616" y="612.8846153846154"></rect><rect width="5" height="5" x="305.1923076923077" y="612.8846153846154" fill="hsla(212, 78%, 40%, 1.00)" stroke="none"></rect><rect width="5" height="5" x="366.7307692307692" y="612.8846153846154" fill="hsla(212, 78%, 40%, 1.00)" stroke="none"></rect><rect width="5" height="5" x="428.2692307692308" y="612.8846153846154" fill="hsla(212, 78%, 40%, 1.00)" stroke="none"></rect><rect width="5" height="5" x="489.8076923076923" y="612.8846153846154" fill="hsla(212, 78%, 40%, 1.00)" stroke="none"></rect><rect width="5" height="5" x="551.3461538461538" y="612.8846153846154" fill="hsla(212, 78%, 40%, 1.00)" stroke="none"></rect><rect width="5" height="5" x="612.8846153846154" y="612.8846153846154" fill="hsla(212, 78%, 40%, 1.00)" stroke="none"></rect><rect width="5" height="5" x="674.4230769230769" y="612.8846153846154"></rect><rect width="5" height="5" x="735.9615384615385" y="612.8846153846154" fill="hsla(212, 78%, 40%, 1.00)" stroke="none"></rect><rect width="5" height="5" x="797.5" y="612.8846153846154" fill="hsla(212, 78%, 40%, 1.00)" stroke="none"></rect><rect width="5" height="5" x="-2.5" y="674.4230769230769" fill="hsla(212, 78%, 40%, 1.00)" stroke="none"></rect><rect width="5" height="5" x="59.03846153846154" y="674.4230769230769" fill="hsla(212, 78%, 40%, 1.00)" stroke="none"></rect><rect width="5" height="5" x="120.57692307692308" y="674.4230769230769" fill="hsla(212, 78%, 40%, 1.00)" stroke="none"></rect><rect width="5" height="5" x="182.1153846153846" y="674.4230769230769" fill="hsla(212, 78%, 40%, 1.00)" stroke="none"></rect><rect width="5" height="5" x="243.65384615384616" y="674.4230769230769" fill="hsla(212, 78%, 40%, 1.00)" stroke="none"></rect><rect width="5" height="5" x="305.1923076923077" y="674.4230769230769" fill="hsla(212, 78%, 40%, 1.00)" stroke="none"></rect><rect width="5" height="5" x="366.7307692307692" y="674.4230769230769" fill="hsla(212, 78%, 40%, 1.00)" stroke="none"></rect><rect width="5" height="5" x="428.2692307692308" y="674.4230769230769" fill="hsla(212, 78%, 40%, 1.00)" stroke="none"></rect><rect width="5" height="5" x="489.8076923076923" y="674.4230769230769"></rect><rect width="5" height="5" x="551.3461538461538" y="674.4230769230769" fill="hsla(212, 78%, 40%, 1.00)" stroke="none"></rect><rect width="5" height="5" x="612.8846153846154" y="674.4230769230769" fill="hsla(212, 78%, 40%, 1.00)" stroke="none"></rect><rect width="5" height="5" x="674.4230769230769" y="674.4230769230769" fill="hsla(212, 78%, 40%, 1.00)" stroke="none"></rect><rect width="5" height="5" x="735.9615384615385" y="674.4230769230769" fill="hsla(212, 78%, 40%, 1.00)" stroke="none"></rect><rect width="5" height="5" x="797.5" y="674.4230769230769" fill="hsla(212, 78%, 40%, 1.00)" stroke="none"></rect><rect width="5" height="5" x="-2.5" y="735.9615384615385" fill="hsla(212, 78%, 40%, 1.00)" stroke="none"></rect><rect width="5" height="5" x="59.03846153846154" y="735.9615384615385" fill="hsla(212, 78%, 40%, 1.00)" stroke="none"></rect><rect width="5" height="5" x="120.57692307692308" y="735.9615384615385" fill="hsla(212, 78%, 40%, 1.00)" stroke="none"></rect><rect width="5" height="5" x="182.1153846153846" y="735.9615384615385"></rect><rect width="5" height="5" x="243.65384615384616" y="735.9615384615385" fill="hsla(212, 78%, 40%, 1.00)" stroke="none"></rect><rect width="5" height="5" x="305.1923076923077" y="735.9615384615385" fill="hsla(212, 78%, 40%, 1.00)" stroke="none"></rect><rect width="5" height="5" x="366.7307692307692" y="735.9615384615385" fill="hsla(212, 78%, 40%, 1.00)" stroke="none"></rect><rect width="5" height="5" x="428.2692307692308" y="735.9615384615385" fill="hsla(212, 78%, 40%, 1.00)" stroke="none"></rect><rect width="5" height="5" x="489.8076923076923" y="735.9615384615385" fill="hsla(212, 78%, 40%, 1.00)" stroke="none"></rect><rect width="5" height="5" x="551.3461538461538" y="735.9615384615385" fill="hsla(212, 78%, 40%, 1.00)" stroke="none"></rect><rect width="5" height="5" x="612.8846153846154" y="735.9615384615385"></rect><rect width="5" height="5" x="674.4230769230769" y="735.9615384615385" fill="hsla(212, 78%, 40%, 1.00)" stroke="none"></rect><rect width="5" height="5" x="735.9615384615385" y="735.9615384615385"></rect><rect width="5" height="5" x="797.5" y="735.9615384615385" fill="hsla(212, 78%, 40%, 1.00)" stroke="none"></rect><rect width="5" height="5" x="-2.5" y="797.5" fill="hsla(212, 78%, 40%, 1.00)" stroke="none"></rect><rect width="5" height="5" x="59.03846153846154" y="797.5" fill="hsla(212, 78%, 40%, 1.00)" stroke="none"></rect><rect width="5" height="5" x="120.57692307692308" y="797.5" fill="hsla(212, 78%, 40%, 1.00)" stroke="none"></rect><rect width="5" height="5" x="182.1153846153846" y="797.5" fill="hsla(212, 78%, 40%, 1.00)" stroke="none"></rect><rect width="5" height="5" x="243.65384615384616" y="797.5" fill="hsla(212, 78%, 40%, 1.00)" stroke="none"></rect><rect width="5" height="5" x="305.1923076923077" y="797.5" fill="hsla(212, 78%, 40%, 1.00)" stroke="none"></rect><rect width="5" height="5" x="366.7307692307692" y="797.5" fill="hsla(212, 78%, 40%, 1.00)" stroke="none"></rect><rect width="5" height="5" x="428.2692307692308" y="797.5" fill="hsla(212, 78%, 40%, 1.00)" stroke="none"></rect><rect width="5" height="5" x="489.8076923076923" y="797.5" fill="hsla(212, 78%, 40%, 1.00)" stroke="none"></rect><rect width="5" height="5" x="551.3461538461538" y="797.5" fill="hsla(212, 78%, 40%, 1.00)" stroke="none"></rect><rect width="5" height="5" x="612.8846153846154" y="797.5" fill="hsla(212, 78%, 40%, 1.00)" stroke="none"></rect><rect width="5" height="5" x="674.4230769230769" y="797.5" fill="hsla(212, 78%, 40%, 1.00)" stroke="none"></rect><rect width="5" height="5" x="735.9615384615385" y="797.5" fill="hsla(212, 78%, 40%, 1.00)" stroke="none"></rect><rect width="5" height="5" x="797.5" y="797.5" fill="hsla(212, 78%, 40%, 1.00)" stroke="none"></rect></g></svg>